<svg xmlns="http://www.w3.org/2000/svg" width="1134" height="441" viewBox="0 0 1134 441"><g fill="none" fill-rule="evenodd"><path fill="#54585A" d="m0 288.628 67.556-133.883 67.204 133.883h-32.111l-35.093-70.363-35.445 70.363zm187.927-28.426h14.564q8.068 0 15.266-3.069c4.795-2.046 9.006-4.828 12.634-8.337q5.437-5.262 8.51-12.283 3.069-7.017 3.07-15.089-.001-7.897-3.07-15.003-3.073-7.107-8.51-12.37-5.442-5.265-12.634-8.335-7.198-3.07-15.266-3.071h-14.564zm82.646-38.778c0 9.243-1.785 17.926-5.352 26.057q-5.354 12.197-14.564 21.32-9.213 9.124-21.671 14.388-12.459 5.262-26.495 5.263h-43.165V154.57h43.165q14.036 0 26.495 5.264 12.458 5.265 21.671 14.388 9.21 9.126 14.564 21.232 5.351 12.109 5.352 25.97m.876 67.204 67.555-133.883 67.205 133.883h-32.111l-35.094-70.363-35.444 70.363zm187.927-30.357h53.869v30.181h-82.47V154.57h28.601zm78.067 30.357 67.556-133.883 67.204 133.883h-32.111l-35.093-70.363-35.445 70.363zm187.927-28.602h22.285q7.369.001 12.37-5.087 5-5.09 5-12.458 0-7.37-5-12.46-5.001-5.087-12.37-5.088H725.37zm0-63.695h22.285q2.63.002 4.474-1.93 1.842-1.93 1.842-4.562c0-1.755-.614-3.273-1.842-4.562q-1.843-1.93-4.474-1.93H725.37zm68.434 46.15q-.002 9.474-3.598 17.897t-9.914 14.74c-4.212 4.21-9.124 7.517-14.739 9.913q-8.423 3.598-17.898 3.597h-50.886V154.745h50.886q7.191.001 13.599 2.808 6.403 2.809 11.142 7.545 4.737 4.738 7.544 11.142 2.808 6.407 2.809 13.599c0 6.553-1.64 12.458-4.914 17.723q7.37 6.493 11.669 15.441t4.3 19.478"/><path fill="#B8B8B9" d="M1031.42 168.92 761.415 303.391l-64.945 32.701V441l437.39-220.661z"/><path fill="#14D9C4" d="m1031.05 272.225-.02-.009 102.81-51.868.02.009zm-103.53-51.561L696.47 105.591V.823l334.93 168.106z"/><path fill="#099D8D" d="m1031.03 272.216-103.51-51.552 103.88-51.735 102.44 51.419z"/></g></svg>